<svg width="35" height="35" viewBox="0 0 35 35" fill="none" xmlns="http://www.w3.org/2000/svg">
<path fill-rule="evenodd" clip-rule="evenodd" d="M10.4076 21.9304C10.6151 22.2534 10.7762 22.5991 10.8921 22.9629H9.09292L10.4076 21.9304ZM13.3647 19.6095L14.2044 22.9629H13.076C12.8988 22.1258 12.5572 21.3303 12.0701 20.6234L13.3647 19.6095ZM25.0365 15.0041L25.1477 15.4427L15.7626 22.3891L14.814 18.6025L25.0365 15.0041ZM22.9686 4.16975C22.0043 4.2022 21.8676 5.57704 22.8075 5.79761L24.4926 6.22928L25.6414 10.8165L24.6905 11.5274C24.4244 11.7272 24.3037 12.0659 24.3835 12.3896L24.6358 13.3966L14.4111 16.9954L14.1406 15.9177C14.0567 15.5564 13.7425 15.2954 13.3717 15.279C12.8142 15.2564 12.396 15.7792 12.5393 16.318L12.9236 17.8566L6.19923 23.1405C5.58782 23.6246 5.92907 24.6108 6.70891 24.613H11.0949C10.9333 26.9314 9.00433 28.7299 6.67501 28.7325C4.22719 28.7325 2.24167 26.7524 2.24167 24.3086C2.24167 21.867 4.22756 19.8851 6.67501 19.8851C7.26417 19.8851 7.84896 20.0032 8.39037 20.2307L10.21 18.8143C9.15454 18.1395 7.92808 17.7804 6.67501 17.7804C4.93923 17.7804 3.27417 18.4658 2.04808 19.6915C0.819434 20.9169 0.130371 22.5765 0.130371 24.3086C0.130371 27.914 3.06016 30.8376 6.67464 30.8376C10.1684 30.835 13.0457 28.0959 13.2098 24.6138H15.2591C15.4363 24.6138 15.6073 24.5569 15.7484 24.4515L25.5797 17.177L27.4129 24.5036C27.679 25.5722 29.2828 25.1723 29.017 24.1037L27.9659 19.9077C28.0866 19.896 28.2099 19.8873 28.3302 19.8851C29.5059 19.8851 30.6343 20.351 31.4645 21.1805C32.2972 22.0103 32.7635 23.1357 32.7635 24.3086C32.7635 25.4818 32.2976 26.6077 31.4645 27.4364C30.6347 28.2661 29.5067 28.7325 28.3302 28.7325C25.8827 28.7325 23.8968 26.7524 23.8968 24.3086C23.899 23.061 24.4295 21.8721 25.3574 21.0346L24.8025 18.8187C22.9259 20.0164 21.7884 22.085 21.7863 24.3079C21.7863 27.9136 24.7164 30.8372 28.3309 30.8372C30.0663 30.8372 31.731 30.1507 32.9575 28.9253C34.1857 27.7021 34.8752 26.0411 34.8752 24.3079C34.8752 22.5761 34.1857 20.9165 32.9596 19.6912C31.731 18.4654 30.0663 17.7796 28.3309 17.7796C28.037 17.7818 27.7435 17.8063 27.4522 17.85L26.1193 12.5213L27.0702 11.8103C27.3363 11.6102 27.457 11.2715 27.375 10.9484L25.9739 5.34918C25.9009 5.05386 25.6716 4.82454 25.3781 4.74944L23.2147 4.19964C23.1352 4.17668 23.0503 4.16756 22.9686 4.16975Z" fill="#964747"/>
<path d="M11.3401 12.4443H14.213C15.7731 12.4443 15.8347 14.0128 14.5043 14.2906L12.2636 14.758C11.1535 14.9902 10.137 14.4488 10.1184 13.5056C10.1049 12.9172 10.6624 12.4443 11.3401 12.4443Z" fill="#964747"/>
</svg>
