<svg width="35" height="35" viewBox="0 0 35 35" fill="none" xmlns="http://www.w3.org/2000/svg">
<g clip-path="url(#clip0_201_150)">
<path d="M29.1817 29.3614C26.7576 29.3614 24.7852 27.3875 24.7852 24.9616C24.7852 23.5907 25.4152 22.365 26.4007 21.5575L27.8845 24.5565C27.8444 24.6845 27.8233 24.8205 27.8233 24.9616C27.8233 25.713 28.4314 26.3215 29.1817 26.3215C29.9324 26.3215 30.5413 25.713 30.5413 24.9616C30.5413 24.2105 29.9324 23.602 29.1817 23.602C29.1198 23.602 29.0596 23.6075 28.9994 23.6155L27.6308 20.8502C28.1142 20.6672 28.6356 20.5618 29.1817 20.5618C31.6062 20.5618 33.579 22.5356 33.579 24.9616C33.579 27.3875 31.6062 29.3614 29.1817 29.3614ZM15.1507 25.2248C14.5499 25.2248 14.0625 24.7366 14.0625 24.1347C14.0625 23.5335 14.5499 23.0457 15.1507 23.0457C15.7523 23.0457 16.2394 23.5335 16.2394 24.1347C16.2394 24.7366 15.7523 25.2248 15.1507 25.2248ZM10.6795 21.8608C11.3015 21.4463 11.9872 21.0088 12.735 20.6424L13.2195 22.8032C13.0376 23.041 12.8972 23.1861 12.8101 23.6586H11.4418C11.2821 22.9498 11.0215 22.3843 10.6795 21.8608ZM5.81084 29.3614C3.38636 29.3614 1.41397 27.3875 1.41397 24.9616C1.41397 22.5356 3.38636 20.5618 5.81084 20.5618C6.85829 20.5618 7.82042 20.9318 8.57657 21.5458C7.60277 22.3118 6.83095 23.0643 6.2622 23.6804C6.12074 23.6305 5.96907 23.602 5.81084 23.602C5.06016 23.602 4.45167 24.2105 4.45167 24.9616C4.45167 25.713 5.06016 26.3215 5.81084 26.3215C6.56115 26.3215 7.17001 25.713 7.17001 24.9616C7.17001 24.9105 7.16636 24.8606 7.16126 24.8114C7.70923 24.2069 8.50001 23.4219 9.52667 22.6202C9.95542 23.2994 10.2077 24.1008 10.2077 24.9616C10.2077 27.3875 8.23532 29.3614 5.81084 29.3614ZM15.3017 19.5967C15.0089 20.3131 14.8336 21.0839 14.6866 21.7853C14.6137 21.8006 14.5426 21.8192 14.4722 21.8404L14.0552 20.0266C14.4562 19.8705 14.8718 19.7265 15.3017 19.5967ZM29.1817 19.1447C28.4099 19.1447 27.6731 19.297 26.9986 19.5719L26.8783 19.3284L24.507 7.25923L25.0969 7.58408C25.2413 7.66356 25.3977 7.70147 25.5516 7.70147C25.8844 7.70147 26.2075 7.52465 26.3799 7.2122C26.6311 6.75538 26.4649 6.18007 26.008 5.92851L23.4111 4.49715C22.955 4.24595 22.3804 4.4122 22.1285 4.86903C21.8769 5.32621 22.0432 5.90116 22.5 6.15272L22.8883 6.36673L24.9737 16.9809C23.7447 16.8361 20.8656 16.7555 15.8238 17.9835C15.0895 18.1625 14.3942 18.3823 13.734 18.6295L12.0572 11.3382C13.1875 10.9773 14.1868 10.4971 14.1161 10.0753C14.0625 9.75845 13.1711 9.67569 11.3171 9.7096C10.0196 9.73293 8.81355 9.83757 8.59006 10.6371C8.32428 11.5887 8.30022 12.0178 9.70204 11.8719C9.97694 11.8431 10.3182 11.7852 10.6882 11.7042L12.408 19.1848C11.4243 19.643 10.538 20.1578 9.75089 20.6894C8.71438 19.7313 7.3297 19.1447 5.81084 19.1447C2.60542 19.1447 -0.00244141 21.7543 -0.00244141 24.9616C-0.00244141 28.1692 2.60542 30.7789 5.81084 30.7789C9.01626 30.7789 11.6241 28.241 11.6241 25.0338C11.6241 25.0236 11.6234 25.0761 11.6234 25.0761H12.8101C13.1153 26.0211 14.0672 26.786 15.1952 26.786C16.5693 26.786 17.6839 25.6346 17.6839 24.2594C17.6839 23.2072 17.0305 22.291 16.1085 21.9268C16.3229 20.926 16.612 19.8002 17.2183 19.1242C22.5182 17.9572 24.9453 18.3951 25.2643 18.4643L25.5067 19.6966C25.5188 19.7582 25.5388 19.8173 25.5669 19.8735L25.7605 20.2636C24.312 21.3223 23.3688 23.034 23.3688 24.9623C23.3688 28.1699 25.9767 30.7789 29.1817 30.7789C32.3875 30.7789 34.9954 28.1692 34.9954 24.9616C34.9954 21.7543 32.3875 19.1447 29.1817 19.1447Z" fill="white"/>
</g>
<defs>
<clipPath id="clip0_201_150">
<rect width="35" height="35" fill="white"/>
</clipPath>
</defs>
</svg>
