<svg width="35" height="35" viewBox="0 0 35 35" fill="none" xmlns="http://www.w3.org/2000/svg">
<path fill-rule="evenodd" clip-rule="evenodd" d="M10.1939 16.7708C10.6503 17.1712 11.0255 17.6582 11.2924 18.2044L8.97179 18.8253L10.1939 16.7708ZM12.358 13.1276L15.0016 17.212L13.4277 17.6327C12.9764 16.547 12.2498 15.5991 11.3186 14.8798L12.358 13.1276ZM19.7664 9.00121L16.2161 16.0628L13.528 11.915L19.7664 9.00121ZM20.6184 1.39017C20.0927 1.56007 19.879 2.19079 20.1977 2.64507L20.7857 3.51204L19.3734 4.1734C18.8936 4.39871 18.7499 5.00939 19.0755 5.42501L20.2768 6.94897L12.6271 10.5252L12.0934 9.69611C11.895 9.38585 11.5155 9.24147 11.1611 9.3472C10.6328 9.50652 10.4064 10.1325 10.7152 10.5912L11.3587 11.589L6.52543 19.7222C6.15028 20.3565 6.73288 21.1236 7.44418 20.9333L11.739 19.7841C11.949 22.0136 10.5198 24.068 8.35564 24.6506C5.90127 25.3072 3.38273 23.858 2.72575 21.4105C2.07095 18.9635 3.52674 16.4475 5.97856 15.7905C6.59689 15.6264 7.24366 15.5936 7.87549 15.6935L9.05382 13.7233C7.86819 13.3799 6.60783 13.3642 5.41382 13.6825C3.67621 14.1491 2.192 15.2833 1.29111 16.8401C0.392413 18.3943 0.146683 20.2402 0.612985 21.9756C1.58095 25.5872 5.30043 27.7291 8.92075 26.7593C12.2527 25.8643 14.3818 22.6169 13.87 19.2157L16.386 18.5409C16.7174 18.5125 16.9974 18.2868 17.0969 17.9711L21.7184 8.77809L26.8014 15.24C27.4791 16.0989 28.773 15.0836 28.0927 14.2217L25.346 10.7304C25.6438 10.5718 25.9621 10.4431 26.3008 10.3505C28.7552 9.69428 31.2766 11.1457 31.9311 13.592C32.588 16.0373 31.1301 18.5537 28.6786 19.2103C26.2239 19.8669 23.7053 18.4155 23.0509 15.971C22.7735 14.937 22.8763 13.8928 23.2667 12.9825L21.7935 11.1249C20.7945 12.6748 20.4201 14.6162 20.9356 16.5346C21.9036 20.1462 25.6234 22.2885 29.2434 21.3187C32.8633 20.3492 35.0143 16.637 34.0467 13.0258C33.0784 9.41428 29.3564 7.27126 25.7364 8.24142C25.1024 8.41095 24.5173 8.66944 23.9806 8.99501L21.0129 5.22231L22.3535 4.59413C22.8121 4.38121 22.9714 3.80954 22.6889 3.38845L21.5576 1.72413C21.353 1.41606 20.9706 1.27934 20.6184 1.39017Z" fill="#966847"/>
<path d="M8.40686 7.02769L10.9174 6.35905C12.2776 5.99264 12.7556 7.55197 11.6673 8.1415L9.83675 9.13681C8.93076 9.629 7.89826 9.32384 7.62592 8.37993C7.45675 7.79223 7.81587 7.18738 8.40686 7.02769Z" fill="#966847"/>
<path d="M32.1708 22.8579L24.6975 27.7415C23.6946 28.3085 23.3216 27.7543 23.735 27.2617L24.4536 26.4028C25.0001 25.7487 24.8543 25.5639 24.0716 25.3739L19.3867 24.2452C18.2462 23.9681 17.6844 24.0782 16.6191 24.9328L13.0218 27.8108C11.803 28.9698 10.7041 29.096 9.12546 29.096H4.16057C3.0464 29.096 2.9538 29.1729 2.22281 30.0107L0.725097 31.7199C-0.0088086 32.5588 0.491764 33.7305 1.60593 33.7305H31.7909C33.4825 33.7305 34.2759 32.877 34.2759 31.4687V23.8478C34.2762 22.377 33.1417 22.2243 32.1708 22.8579Z" fill="#966847"/>
</svg>
