<svg width="35" height="35" viewBox="0 0 35 35" fill="none" xmlns="http://www.w3.org/2000/svg">
<path fill-rule="evenodd" clip-rule="evenodd" d="M10.0546 17.267C11.0138 17.9725 11.677 19.0116 11.9136 20.1771H8.45954L10.0546 17.267ZM12.2144 13.3266L15.6298 20.1771H14.2291C13.96 18.1708 12.8411 16.3796 11.1593 15.2483L12.2144 13.3266ZM13.7183 12.639H21.3851L17.0582 19.3342L13.7183 12.639ZM22.9029 6.79474C22.4468 6.79474 22.0778 7.16333 22.0756 7.62161V10.986H12.1006C11.7995 10.9882 11.5242 11.1519 11.378 11.4158L6.33803 20.6044C6.03542 21.1553 6.43391 21.8298 7.06282 21.8298H11.9526C11.5997 24.1744 9.581 25.911 7.20428 25.9131C4.55011 25.9131 2.39688 23.7668 2.39688 21.1192C2.39688 18.4848 4.52678 16.3446 7.16563 16.3242L8.36584 14.1367C7.98084 14.0729 7.59329 14.0387 7.20428 14.0387C3.28537 14.0387 0.106934 17.208 0.106934 21.1192C0.106934 25.0279 3.28537 28.1965 7.20428 28.1965C10.845 28.1925 13.8911 25.4421 14.2582 21.8294H16.9649C17.2456 21.8294 17.5074 21.6851 17.6602 21.4514L22.8095 13.4765L26.7467 21.3737C26.9519 21.7817 27.4485 21.9476 27.8561 21.7423C28.2644 21.5378 28.4307 21.0412 28.2254 20.634L26.2158 16.6042C26.7288 16.4194 27.2658 16.3235 27.8113 16.322C29.0869 16.322 30.3105 16.8277 31.2106 17.7264C32.113 18.6255 32.6208 19.8457 32.6208 21.1185C32.6187 22.3887 32.113 23.609 31.2106 24.5084C30.3083 25.4078 29.0869 25.9128 27.8113 25.9128C25.1567 25.9128 23.0035 23.7665 23.0035 21.1185C23.0061 20.1804 23.2817 19.2657 23.7987 18.4822L22.6641 16.2488C21.4132 17.5624 20.7157 19.3062 20.7157 21.1185C20.7157 25.0276 23.892 28.1962 27.8113 28.1962C29.6932 28.1962 31.4976 27.4521 32.8305 26.1221C34.1608 24.7946 34.9086 22.9943 34.9086 21.1181C34.9086 19.2402 34.1608 17.4388 32.8305 16.112C31.4976 14.7824 29.6932 14.0379 27.8113 14.0379C26.9133 14.0401 26.0222 14.2137 25.1888 14.5458L23.7305 11.6226V8.44703H27.0887C27.2983 8.44703 27.3486 8.49479 27.4077 8.56516C27.4693 8.63589 27.517 8.76531 27.5123 8.91115C27.5076 9.05516 27.4529 9.18896 27.3738 9.27354C27.2936 9.35521 27.2002 9.42339 26.9341 9.42339C26.4711 9.41427 26.093 9.78761 26.093 10.2495C26.093 10.7122 26.4711 11.0833 26.9341 11.076C27.5925 11.076 28.189 10.819 28.5791 10.4096C28.9663 9.99761 29.1507 9.4737 29.1668 8.96C29.1806 8.44484 29.0279 7.9213 28.6677 7.49802C28.3104 7.07474 27.7267 6.79474 27.0887 6.79474H22.9029Z" fill="#968E47"/>
<path d="M9.70804 7.7146H12.4333C13.9146 7.7146 13.9737 9.4285 12.7115 9.73147L10.5834 10.2437C9.5334 10.496 8.56908 9.90683 8.54903 8.87288C8.537 8.23158 9.06528 7.7146 9.70804 7.7146Z" fill="#968E47"/>
</svg>
