<svg width="35" height="35" viewBox="0 0 35 35" fill="none" xmlns="http://www.w3.org/2000/svg">
<path d="M30.3923 24.2127C28.4498 24.2127 26.8693 22.6334 26.8693 20.692C26.8693 19.7422 27.2492 18.8807 27.8632 18.2467C27.9423 18.4603 28.0127 18.647 28.0695 18.7936C28.4013 19.6449 29.0576 20.3161 29.5355 20.7215C29.5516 21.1816 29.9278 21.5509 30.3923 21.5509C30.8666 21.5509 31.2513 21.1663 31.2513 20.692C31.2513 20.2176 30.8666 19.8334 30.3923 19.8334C30.3238 19.8334 30.2581 19.8436 30.194 19.8585C29.817 19.5326 29.3204 19.0178 29.0798 18.4002C29 18.1953 28.8924 17.9073 28.7695 17.5704C29.2555 17.3166 29.8068 17.1712 30.3923 17.1712C32.3348 17.1712 33.9149 18.7509 33.9149 20.692C33.9149 22.6334 32.3348 24.2127 30.3923 24.2127ZM24.2884 18.1967C23.8134 19.2325 23.362 20.214 22.4236 20.6963C22.176 20.3536 21.7739 20.1298 21.3193 20.1298C21.2857 20.1298 21.2533 20.1323 21.2205 20.1349C20.7166 18.9255 20.223 17.7009 19.7373 16.4825C21.9515 15.5047 24.2815 15.0599 26.6579 15.1758C25.3782 15.8288 24.8014 17.0789 24.2884 18.1967ZM21.2948 21.8936C21.0458 21.8936 20.8442 21.692 20.8442 21.4434C20.8442 21.2972 20.9149 21.1685 21.0229 21.0864C21.0251 21.0853 21.0272 21.0853 21.0291 21.0846C21.0684 21.0682 21.1038 21.0471 21.1366 21.023C21.1858 21.0044 21.2387 20.9927 21.2948 20.9927C21.5435 20.9927 21.7455 21.1947 21.7455 21.4434C21.7455 21.692 21.5435 21.8936 21.2948 21.8936ZM19.049 21.0379L17.7533 17.5201C18.085 17.3188 18.4197 17.1292 18.7581 16.9528C19.2477 18.1822 19.7468 19.4185 20.2565 20.6402C20.161 20.7594 20.0852 20.895 20.0337 21.0427C19.7064 21.0449 19.3782 21.0438 19.049 21.0379ZM13.3998 20.8279C13.6882 20.5924 13.99 20.3901 14.3025 20.1819C14.328 20.1644 14.3524 20.1451 14.375 20.1236C15.164 19.3751 15.9807 18.7094 16.8214 18.1264L17.882 21.0062C17.3037 20.9854 16.7277 20.9596 16.16 20.9329C15.2555 20.8903 14.3284 20.8469 13.3998 20.8279ZM11.3588 21.8936C11.1098 21.8936 10.9079 21.692 10.9079 21.4434C10.9079 21.1947 11.1098 20.9927 11.3588 20.9927C11.6075 20.9927 11.8091 21.1947 11.8091 21.4434C11.8091 21.692 11.6075 21.8936 11.3588 21.8936ZM9.39994 20.7911C9.33687 20.7937 9.27452 20.7951 9.21182 20.797C9.21254 20.762 9.21437 20.7273 9.21437 20.692C9.21437 19.786 8.95004 18.9405 8.49577 18.2274L9.24426 17.6561L10.4445 20.506C10.3606 20.5855 10.2877 20.6756 10.2261 20.7744C9.97343 20.7714 9.69525 20.7806 9.39994 20.7911ZM4.60749 24.2127C2.66499 24.2127 1.08488 22.6334 1.08488 20.692C1.08488 18.7509 2.66499 17.1712 4.60749 17.1712C5.49999 17.1712 6.31338 17.5073 6.93463 18.0557L4.60567 19.8334C4.13207 19.8348 3.74817 20.2184 3.74817 20.692C3.74817 21.1663 4.13317 21.5509 4.60749 21.5509C4.98702 21.5509 5.30567 21.3034 5.41942 20.9621C6.02134 21.6125 6.97619 21.8229 7.92082 21.8769C7.43228 23.2364 6.13364 24.2127 4.60749 24.2127ZM8.13046 20.692C8.13046 20.7288 8.12609 20.7645 8.12499 20.801C7.17562 20.7667 6.42713 20.5964 6.09353 20.0605L7.62806 18.8895C7.94489 19.4174 8.13046 20.0328 8.13046 20.692ZM12.9805 19.3259C14.2113 18.6065 15.6843 17.4286 16.3595 16.8715L16.4349 17.0775C15.4801 17.7202 14.5537 18.4633 13.6627 19.3062C13.1869 19.623 12.6987 19.9537 12.2313 20.4269C12.018 20.2574 11.753 20.1509 11.4638 20.1338L11.3815 19.938C11.7887 19.8851 12.3133 19.7163 12.9805 19.3259ZM30.3923 16.088C29.6784 16.088 29.0014 16.2513 28.3977 16.5423C27.9543 15.3049 27.457 13.8859 27.2401 13.2658L27.8172 12.6777C27.8836 12.6102 27.931 12.5264 27.9551 12.4349C28.1363 11.7411 28.1782 10.4745 27.1865 10.1314C26.3567 9.8445 24.4554 9.72382 24.241 9.71143C23.9461 9.69247 23.6858 9.92106 23.6683 10.2197C23.6501 10.5179 23.8779 10.7746 24.1765 10.7924C24.7172 10.8249 26.2481 10.9532 26.8318 11.1552C26.9882 11.2091 26.9984 11.6736 26.9342 12.0305L26.2306 12.7469C26.0862 12.8939 26.0381 13.1101 26.1059 13.3044C26.1212 13.3481 26.2244 13.6442 26.3771 14.0813C23.9559 14.0131 21.5872 14.4856 19.3359 15.4737C19.181 15.0821 19.026 14.6905 18.8729 14.303C19.8405 14.124 20.8825 13.8254 20.6962 13.4809C20.5128 13.1411 19.6794 13.4265 18.6808 13.1775C17.7547 12.9467 17.3103 12.7397 17.019 13.3328C16.7022 13.9774 16.8178 14.5513 17.7598 14.463C17.7631 14.4627 17.7668 14.4627 17.7704 14.4623L17.8452 14.6519C18.014 15.0781 18.1842 15.5083 18.3548 15.9396C18.0242 16.1099 17.6968 16.2925 17.3723 16.4847L16.3956 13.8334L16.6267 12.331C16.6366 12.2686 16.6351 12.2052 16.6227 12.1436C16.5297 11.6725 16.051 10.7472 14.9062 10.6167C13.8471 10.4956 12.6633 10.4359 12.6141 10.4333C12.3133 10.4147 12.0603 10.648 12.0457 10.947C12.0304 11.246 12.2608 11.5001 12.5594 11.5154C12.5718 11.5158 13.7585 11.5759 14.7834 11.6929C15.2938 11.7513 15.4801 12.1191 15.5377 12.2814L15.3029 13.8072C15.2891 13.8979 15.2982 13.9905 15.3299 14.0766L15.9617 15.792C15.6128 16.0862 13.8212 17.5795 12.4333 18.3907C11.5335 18.9168 11.0599 18.908 10.9392 18.8563C10.9334 18.8515 10.9268 18.8483 10.9206 18.8439L9.05942 14.424C9.92749 14.2417 10.7463 13.9701 10.5794 13.6613C10.396 13.3219 9.56254 13.607 8.56395 13.358C7.63827 13.1272 7.19348 12.9201 6.90218 13.5137C6.58536 14.1579 6.70093 14.7321 7.64301 14.6439C7.73926 14.6351 7.84937 14.6224 7.96895 14.6071C7.97588 14.6322 7.98207 14.6577 7.99228 14.6825L8.81004 16.6239L7.81036 17.3874C6.98056 16.5838 5.85108 16.088 4.60749 16.088C2.06744 16.088 0.000976562 18.1534 0.000976562 20.692C0.000976562 23.2309 2.06744 25.2963 4.60749 25.2963C6.73447 25.2963 8.52895 23.8474 9.05614 21.886C9.18702 21.8823 9.31572 21.8783 9.43786 21.8736C9.6628 21.8659 9.87754 21.8586 10.0715 21.8572C10.2312 22.4318 10.7573 22.8536 11.3829 22.8536C11.9914 22.8536 12.5062 22.4547 12.6816 21.9046C13.8263 21.9129 14.9835 21.9622 16.109 22.015C17.3037 22.0708 18.5342 22.1288 19.7599 22.1288C19.8781 22.1288 19.9962 22.1277 20.114 22.1266C20.3422 22.5586 20.7961 22.8536 21.3193 22.8536C21.9708 22.8536 22.5155 22.3953 22.6496 21.7839C24.1109 21.1794 24.7289 19.8359 25.2739 18.6485C25.7435 17.6251 26.1908 16.6542 27.1107 16.1609C27.2284 16.493 27.3477 16.8252 27.4614 17.1424C26.4384 17.9878 25.7854 19.265 25.7854 20.692C25.7854 23.2309 27.8522 25.2963 30.3923 25.2963C32.9323 25.2963 34.9988 23.2309 34.9988 20.692C34.9988 18.1534 32.9323 16.088 30.3923 16.088Z" fill="#484796"/>
</svg>
