<svg width="35" height="35" viewBox="0 0 35 35" fill="none" xmlns="http://www.w3.org/2000/svg">
<g clip-path="url(#clip0_201_208)">
<path d="M28.4164 27.6146C25.6383 27.6146 23.3782 25.3513 23.3782 22.5695C23.3782 21.0787 24.0304 19.7414 25.0604 18.8169C25.2139 19.1906 25.3408 19.5004 25.429 19.7163C25.9033 20.8753 26.6492 21.8349 27.1998 22.4441C27.1958 22.486 27.187 22.5265 27.187 22.5695C27.187 23.2491 27.7375 23.8 28.4164 23.8C29.0949 23.8 29.645 23.2491 29.645 22.5695C29.645 21.8896 29.0949 21.3387 28.4164 21.3387C28.3763 21.3387 28.3384 21.3467 28.2997 21.3503C27.8425 20.8366 27.2388 20.0502 26.8633 19.1326C26.7539 18.8657 26.5862 18.457 26.3813 17.9579C27.0043 17.6808 27.692 17.524 28.4164 17.524C31.1938 17.524 33.4542 19.7874 33.4542 22.5695C33.4542 25.3513 31.1938 27.6146 28.4164 27.6146ZM20.2165 18.8745C19.8304 19.8862 19.4316 20.9318 18.8351 21.8057C18.3827 22.225 17.7753 22.307 17.0756 22.4014C17.0253 22.4084 16.9761 22.416 16.9262 22.4233C16.8325 22.2483 16.7125 22.0901 16.5722 21.9523C17.8019 21.7157 19.1808 21.1502 19.4947 19.8154C20.3139 16.3333 21.9986 14.2935 22.8532 13.4422C22.9666 13.7185 23.0822 14 23.1985 14.2829C21.5509 15.3883 20.8721 17.1565 20.2165 18.8745ZM15.1743 23.9221C14.8185 23.9221 14.5301 23.633 14.5301 23.2768C14.5301 22.9206 14.8185 22.6315 15.1743 22.6315C15.5302 22.6315 15.8189 22.9206 15.8189 23.2768C15.8189 23.633 15.5302 23.9221 15.1743 23.9221ZM6.59132 27.6146C3.81356 27.6146 1.55351 25.3513 1.55351 22.5695C1.55351 20.9788 2.29434 19.5599 3.44642 18.6342L5.44653 22.1302C5.39439 22.2669 5.36231 22.4142 5.36231 22.5695C5.36231 23.2491 5.91283 23.8 6.59132 23.8C6.93585 23.8 7.24611 23.6571 7.4696 23.4285L11.4731 23.7934C10.9248 25.9846 8.94726 27.6146 6.59132 27.6146ZM3.56236 15.7142L6.27741 15.6264C6.26721 15.7339 6.25554 15.8539 6.24351 15.9808C5.45491 16.022 4.70314 16.2032 4.01116 16.4992L3.56236 15.7142ZM5.99486 18.5711C5.95184 19.0203 5.91429 19.4155 5.88111 19.767L4.79137 17.8624C5.20262 17.7041 5.63793 17.5944 6.09257 17.5492C6.06085 17.8817 6.02804 18.2262 5.99486 18.5711ZM9.11132 18.2076L7.38247 20.3521C7.45757 19.5562 7.54908 18.5996 7.64132 17.636C8.16705 17.7479 8.66033 17.9448 9.11132 18.2076ZM10.3159 19.184C11.0611 20.0054 11.538 21.0711 11.6131 22.2472L8.10471 21.9275L10.3159 19.184ZM13.7415 21.8885C13.7572 21.9289 13.7762 21.9672 13.7969 22.0037C13.6792 22.128 13.5767 22.2665 13.4943 22.4182L13.175 22.389C13.1283 20.6693 12.4228 19.1122 11.301 17.9623L11.9492 17.1584L13.7415 21.8885ZM23.6378 7.93404L23.5226 11.002C23.2298 10.29 22.9885 9.70191 22.8375 9.3355C23.1336 8.92826 23.4573 8.42112 23.6378 7.93404ZM28.4164 15.9713C27.483 15.9713 26.5956 16.1678 25.7906 16.5196C25.1964 15.074 24.4843 13.3404 23.8893 11.8941C23.9776 11.9514 24.0778 11.994 24.1879 12.0156L26.6449 12.4975C27.1013 12.5869 27.5425 12.2956 27.6303 11.8467L28.8615 8.45795C28.9498 8.00914 28.6508 7.57237 28.1947 7.48305L24.6418 6.7856C24.2933 6.71743 23.9553 6.87237 23.7749 7.14873C23.773 7.12795 23.7727 7.16112 23.7698 7.14107C23.7074 6.70284 23.5915 5.86029 19.5479 5.86029C19.5413 5.86029 19.5348 5.86029 19.5278 5.86029C19.1089 5.86029 18.764 6.11914 18.7535 6.54133C18.7429 6.96972 19.0809 7.27706 19.5089 7.288C20.518 7.31352 21.5819 7.4156 22.1222 7.54649C21.9643 7.86805 21.6592 8.33654 21.3453 8.73248C21.1706 8.95269 21.1284 9.24727 21.2352 9.50758C21.2352 9.50758 21.6504 10.5164 22.2232 11.9109C21.4554 12.5635 19.0579 14.9027 17.9856 19.4603C17.7939 20.2766 15.9662 20.5439 14.8976 20.5639L11.5263 11.6692C12.5913 11.4264 13.4987 11.1026 13.2989 10.7665C13.0554 10.3563 11.8942 10.73 10.5212 10.4551C9.2484 10.1999 8.63991 9.96003 8.21955 10.695C7.76236 11.4931 7.90528 12.1924 9.21012 12.0564C9.42413 12.0341 9.68846 12.0002 9.97757 11.9569L11.3119 15.4773L10.0957 16.9863C9.40335 16.5491 8.6246 16.2374 7.7908 16.0832C7.80757 15.9111 7.82398 15.7416 7.83965 15.5761L8.94799 15.5403C9.37601 15.5261 9.71142 15.1677 9.69757 14.7394C9.68372 14.311 9.3184 13.973 8.89804 13.9887L2.22361 14.2041C1.95163 14.2129 1.70444 14.3638 1.57174 14.6019C1.43939 14.8396 1.44121 15.1298 1.57647 15.3661L2.66731 17.2728C1.05184 18.4767 0.00366211 20.4024 0.00366211 22.5695C0.00366211 26.207 2.95898 29.1674 6.59132 29.1674C9.75627 29.1674 12.4064 26.9201 13.0364 23.9352L13.3624 23.9651C13.6209 24.7388 14.3493 25.2977 15.2093 25.2977C16.0657 25.2977 16.7924 24.7432 17.0534 23.9732C17.1296 23.9622 17.2051 23.9502 17.2827 23.94C18.1147 23.8277 19.1501 23.6881 19.977 22.8597C20.0091 22.8276 20.0379 22.793 20.0641 22.7562C20.7929 21.7131 21.2359 20.5515 21.6647 19.4286C22.2352 17.9327 22.7427 16.61 23.8051 15.7602C24.0268 16.299 24.2419 16.824 24.4424 17.3115C22.8554 18.5172 21.8284 20.425 21.8284 22.5695C21.8284 26.207 24.7837 29.1674 28.4164 29.1674C32.0487 29.1674 35.004 26.207 35.004 22.5695C35.004 18.9313 32.0487 15.9713 28.4164 15.9713Z" fill="#479196"/>
</g>
<defs>
<clipPath id="clip0_201_208">
<rect width="35" height="35" fill="white"/>
</clipPath>
</defs>
</svg>
