<svg width="939" height="89" viewBox="0 0 939 89" fill="none" xmlns="http://www.w3.org/2000/svg">
<circle cx="40" cy="45" r="39.5" fill="white" stroke="black"/>
<path d="M44.0476 31.8182V58H40.8771V35.142H40.7237L34.3317 39.3864V36.1648L40.8771 31.8182H44.0476Z" fill="black"/>
<path d="M44.0476 31.8182H45.0476V30.8182H44.0476V31.8182ZM44.0476 58V59H45.0476V58H44.0476ZM40.8771 58H39.8771V59H40.8771V58ZM40.8771 35.142H41.8771V34.142H40.8771V35.142ZM40.7237 35.142V34.142H40.422L40.1706 34.309L40.7237 35.142ZM34.3317 39.3864H33.3317V41.2507L34.8848 40.2194L34.3317 39.3864ZM34.3317 36.1648L33.7785 35.3317L33.3317 35.6284V36.1648H34.3317ZM40.8771 31.8182V30.8182H40.5753L40.3239 30.9851L40.8771 31.8182ZM43.0476 31.8182V58H45.0476V31.8182H43.0476ZM44.0476 57H40.8771V59H44.0476V57ZM41.8771 58V35.142H39.8771V58H41.8771ZM40.8771 34.142H40.7237V36.142H40.8771V34.142ZM40.1706 34.309L33.7785 38.5533L34.8848 40.2194L41.2769 35.9751L40.1706 34.309ZM35.3317 39.3864V36.1648H33.3317V39.3864H35.3317ZM34.8849 36.9978L41.4303 32.6512L40.3239 30.9851L33.7785 35.3317L34.8849 36.9978ZM40.8771 32.8182H44.0476V30.8182H40.8771V32.8182Z" fill="black"/>
<path d="M126.923 40.9844H121.324C121.222 40.2599 121.013 39.6165 120.697 39.054C120.382 38.483 119.977 37.9972 119.483 37.5966C118.989 37.196 118.418 36.8892 117.77 36.6761C117.131 36.4631 116.436 36.3565 115.686 36.3565C114.331 36.3565 113.151 36.6932 112.145 37.3665C111.139 38.0312 110.359 39.0028 109.805 40.2812C109.251 41.5511 108.974 43.0937 108.974 44.9091C108.974 46.7756 109.251 48.3437 109.805 49.6136C110.368 50.8835 111.152 51.8423 112.158 52.4901C113.163 53.1378 114.327 53.4616 115.648 53.4616C116.389 53.4616 117.075 53.3636 117.706 53.1676C118.345 52.9716 118.912 52.6861 119.406 52.3111C119.901 51.9276 120.31 51.4631 120.634 50.9176C120.966 50.3722 121.196 49.75 121.324 49.0511L126.923 49.0767C126.778 50.2784 126.416 51.4375 125.837 52.554C125.266 53.6619 124.494 54.6548 123.523 55.5327C122.56 56.402 121.409 57.0923 120.071 57.6037C118.741 58.1065 117.237 58.358 115.558 58.358C113.223 58.358 111.135 57.8295 109.294 56.7727C107.462 55.7159 106.013 54.1861 104.947 52.1832C103.891 50.1804 103.362 47.7557 103.362 44.9091C103.362 42.054 103.899 39.625 104.973 37.6222C106.047 35.6193 107.504 34.0937 109.345 33.0455C111.186 31.9886 113.257 31.4602 115.558 31.4602C117.075 31.4602 118.482 31.6733 119.777 32.0994C121.081 32.5256 122.236 33.1477 123.241 33.9659C124.247 34.7756 125.065 35.7685 125.696 36.9446C126.335 38.1207 126.744 39.4673 126.923 40.9844ZM130.79 58V38.3636H136.07V41.7898H136.275C136.633 40.571 137.234 39.6506 138.077 39.0284C138.921 38.3977 139.893 38.0824 140.992 38.0824C141.265 38.0824 141.559 38.0994 141.874 38.1335C142.19 38.1676 142.467 38.2145 142.705 38.2741V43.1065C142.45 43.0298 142.096 42.9616 141.644 42.902C141.192 42.8423 140.779 42.8125 140.404 42.8125C139.603 42.8125 138.887 42.9872 138.256 43.3366C137.634 43.6776 137.14 44.1548 136.773 44.7685C136.415 45.3821 136.237 46.0895 136.237 46.8906V58H130.79ZM153.556 58.3835C151.536 58.3835 149.797 57.9744 148.34 57.1562C146.891 56.3295 145.775 55.1619 144.99 53.6534C144.206 52.1364 143.814 50.3423 143.814 48.2713C143.814 46.2514 144.206 44.4787 144.99 42.9531C145.775 41.4276 146.878 40.2386 148.301 39.3864C149.733 38.5341 151.412 38.108 153.338 38.108C154.634 38.108 155.84 38.3168 156.956 38.7344C158.081 39.1435 159.061 39.7614 159.897 40.5881C160.74 41.4148 161.397 42.4545 161.865 43.7074C162.334 44.9517 162.569 46.4091 162.569 48.0795V49.5753H145.988V46.2003H157.442C157.442 45.4162 157.272 44.7216 156.931 44.1165C156.59 43.5114 156.117 43.0384 155.512 42.6974C154.915 42.348 154.221 42.1733 153.428 42.1733C152.601 42.1733 151.868 42.3651 151.229 42.7486C150.598 43.1236 150.104 43.6307 149.746 44.2699C149.388 44.9006 149.205 45.6037 149.196 46.3793V49.5881C149.196 50.5597 149.375 51.3991 149.733 52.1065C150.1 52.8139 150.615 53.3594 151.28 53.7429C151.945 54.1264 152.733 54.3182 153.645 54.3182C154.25 54.3182 154.804 54.233 155.307 54.0625C155.81 53.892 156.24 53.6364 156.598 53.2955C156.956 52.9545 157.229 52.5369 157.417 52.0426L162.453 52.375C162.198 53.5852 161.674 54.642 160.881 55.5455C160.097 56.4403 159.083 57.1392 157.838 57.642C156.603 58.1364 155.175 58.3835 153.556 58.3835ZM173.358 58.3196C171.867 58.3196 170.516 57.9361 169.306 57.169C168.104 56.3935 167.15 55.2557 166.442 53.7557C165.743 52.2472 165.394 50.3977 165.394 48.2074C165.394 45.9574 165.756 44.0866 166.48 42.5952C167.205 41.0952 168.168 39.9744 169.37 39.233C170.58 38.483 171.905 38.108 173.346 38.108C174.445 38.108 175.361 38.2955 176.094 38.6705C176.836 39.0369 177.432 39.4972 177.884 40.0511C178.344 40.5966 178.694 41.1335 178.932 41.6619H179.098V31.8182H184.532V58H179.162V54.8551H178.932C178.676 55.4006 178.314 55.9418 177.846 56.4787C177.385 57.0071 176.784 57.446 176.043 57.7955C175.31 58.1449 174.415 58.3196 173.358 58.3196ZM175.084 53.9858C175.962 53.9858 176.703 53.7472 177.309 53.2699C177.922 52.7841 178.391 52.1065 178.715 51.2372C179.047 50.3679 179.213 49.3494 179.213 48.1818C179.213 47.0142 179.051 46 178.728 45.1392C178.404 44.2784 177.935 43.6136 177.321 43.1449C176.708 42.6761 175.962 42.4418 175.084 42.4418C174.189 42.4418 173.435 42.6847 172.821 43.1705C172.208 43.6562 171.743 44.3295 171.428 45.1903C171.113 46.0511 170.955 47.0483 170.955 48.1818C170.955 49.3239 171.113 50.3338 171.428 51.2116C171.752 52.081 172.216 52.7628 172.821 53.2571C173.435 53.7429 174.189 53.9858 175.084 53.9858ZM197.958 58.3835C195.938 58.3835 194.2 57.9744 192.742 57.1562C191.293 56.3295 190.177 55.1619 189.393 53.6534C188.609 52.1364 188.217 50.3423 188.217 48.2713C188.217 46.2514 188.609 44.4787 189.393 42.9531C190.177 41.4276 191.281 40.2386 192.704 39.3864C194.136 38.5341 195.815 38.108 197.741 38.108C199.036 38.108 200.242 38.3168 201.359 38.7344C202.484 39.1435 203.464 39.7614 204.299 40.5881C205.143 41.4148 205.799 42.4545 206.268 43.7074C206.737 44.9517 206.971 46.4091 206.971 48.0795V49.5753H190.39V46.2003H201.844C201.844 45.4162 201.674 44.7216 201.333 44.1165C200.992 43.5114 200.519 43.0384 199.914 42.6974C199.317 42.348 198.623 42.1733 197.83 42.1733C197.004 42.1733 196.271 42.3651 195.631 42.7486C195.001 43.1236 194.506 43.6307 194.148 44.2699C193.79 44.9006 193.607 45.6037 193.599 46.3793V49.5881C193.599 50.5597 193.778 51.3991 194.136 52.1065C194.502 52.8139 195.018 53.3594 195.683 53.7429C196.347 54.1264 197.136 54.3182 198.048 54.3182C198.653 54.3182 199.207 54.233 199.71 54.0625C200.212 53.892 200.643 53.6364 201.001 53.2955C201.359 52.9545 201.631 52.5369 201.819 52.0426L206.856 52.375C206.6 53.5852 206.076 54.642 205.283 55.5455C204.499 56.4403 203.485 57.1392 202.241 57.642C201.005 58.1364 199.577 58.3835 197.958 58.3835ZM215.971 46.6477V58H210.525V38.3636H215.715V41.8281H215.945C216.38 40.6861 217.109 39.7827 218.131 39.1179C219.154 38.4446 220.394 38.108 221.852 38.108C223.215 38.108 224.404 38.4062 225.418 39.0028C226.433 39.5994 227.221 40.4517 227.783 41.5597C228.346 42.6591 228.627 43.9716 228.627 45.4972V58H223.181V46.4688C223.19 45.267 222.883 44.3295 222.261 43.6562C221.638 42.9744 220.782 42.6335 219.691 42.6335C218.958 42.6335 218.31 42.7912 217.748 43.1065C217.194 43.4219 216.759 43.8821 216.444 44.4872C216.137 45.0838 215.979 45.804 215.971 46.6477ZM243.364 38.3636V42.4545H231.539V38.3636H243.364ZM234.223 33.6591H239.669V51.9659C239.669 52.4687 239.746 52.8608 239.9 53.142C240.053 53.4148 240.266 53.6065 240.539 53.7173C240.82 53.8281 241.144 53.8835 241.51 53.8835C241.766 53.8835 242.022 53.8622 242.277 53.8196C242.533 53.7685 242.729 53.7301 242.865 53.7045L243.722 57.7571C243.449 57.8423 243.066 57.9403 242.571 58.0511C242.077 58.1705 241.476 58.2429 240.769 58.2685C239.456 58.3196 238.306 58.1449 237.317 57.7443C236.337 57.3437 235.574 56.7216 235.029 55.8778C234.483 55.0341 234.215 53.9687 234.223 52.6818V33.6591ZM246.912 58V38.3636H252.358V58H246.912ZM249.647 35.8324C248.838 35.8324 248.143 35.5639 247.564 35.027C246.993 34.4815 246.707 33.8295 246.707 33.071C246.707 32.321 246.993 31.6776 247.564 31.1406C248.143 30.5952 248.838 30.3224 249.647 30.3224C250.457 30.3224 251.147 30.5952 251.718 31.1406C252.298 31.6776 252.588 32.321 252.588 33.071C252.588 33.8295 252.298 34.4815 251.718 35.027C251.147 35.5639 250.457 35.8324 249.647 35.8324ZM262.32 58.3707C261.067 58.3707 259.95 58.1534 258.97 57.7188C257.99 57.2756 257.214 56.6236 256.643 55.7628C256.081 54.8935 255.8 53.8111 255.8 52.5156C255.8 51.4247 256 50.5085 256.401 49.767C256.801 49.0256 257.347 48.429 258.037 47.9773C258.727 47.5256 259.511 47.1847 260.389 46.9545C261.276 46.7244 262.205 46.5625 263.176 46.4688C264.318 46.3494 265.239 46.2386 265.938 46.1364C266.636 46.0256 267.143 45.8636 267.459 45.6506C267.774 45.4375 267.932 45.1222 267.932 44.7045V44.6278C267.932 43.8182 267.676 43.1918 267.165 42.7486C266.662 42.3054 265.946 42.0838 265.017 42.0838C264.037 42.0838 263.257 42.3011 262.678 42.7358C262.098 43.1619 261.714 43.6989 261.527 44.3466L256.49 43.9375C256.746 42.7443 257.249 41.7131 257.999 40.8438C258.749 39.9659 259.716 39.2926 260.901 38.8239C262.094 38.3466 263.474 38.108 265.043 38.108C266.134 38.108 267.178 38.2358 268.175 38.4915C269.18 38.7472 270.071 39.1435 270.847 39.6804C271.631 40.2173 272.249 40.9077 272.7 41.7514C273.152 42.5866 273.378 43.5881 273.378 44.7557V58H268.213V55.277H268.06C267.744 55.8906 267.322 56.4318 266.794 56.9006C266.266 57.3608 265.631 57.723 264.889 57.9872C264.148 58.2429 263.291 58.3707 262.32 58.3707ZM263.879 54.6122C264.68 54.6122 265.388 54.4545 266.001 54.1392C266.615 53.8153 267.097 53.3807 267.446 52.8352C267.795 52.2898 267.97 51.6719 267.97 50.9815V48.8977C267.8 49.0085 267.565 49.1108 267.267 49.2045C266.977 49.2898 266.649 49.3707 266.283 49.4474C265.916 49.5156 265.55 49.5795 265.183 49.6392C264.817 49.6903 264.484 49.7372 264.186 49.7798C263.547 49.8736 262.989 50.0227 262.511 50.2273C262.034 50.4318 261.663 50.7088 261.399 51.0582C261.135 51.3991 261.003 51.8253 261.003 52.3366C261.003 53.0781 261.271 53.6449 261.808 54.0369C262.354 54.4205 263.044 54.6122 263.879 54.6122ZM283.049 31.8182V58H277.603V31.8182H283.049ZM303.75 43.9631L298.764 44.2699C298.679 43.8437 298.495 43.4602 298.214 43.1193C297.933 42.7699 297.562 42.4929 297.102 42.2884C296.65 42.0753 296.109 41.9688 295.478 41.9688C294.635 41.9688 293.923 42.1477 293.343 42.5057C292.764 42.8551 292.474 43.3239 292.474 43.9119C292.474 44.3807 292.662 44.777 293.037 45.1009C293.412 45.4247 294.055 45.6847 294.967 45.8807L298.521 46.5966C300.43 46.9886 301.853 47.6193 302.791 48.4886C303.728 49.358 304.197 50.5 304.197 51.9148C304.197 53.2017 303.818 54.331 303.059 55.3026C302.309 56.2741 301.278 57.0327 299.966 57.5781C298.662 58.1151 297.157 58.3835 295.453 58.3835C292.853 58.3835 290.782 57.8423 289.24 56.7599C287.706 55.669 286.806 54.1861 286.542 52.3111L291.899 52.0298C292.061 52.8224 292.453 53.4276 293.075 53.8452C293.697 54.2543 294.494 54.4588 295.466 54.4588C296.42 54.4588 297.187 54.2756 297.767 53.9091C298.355 53.5341 298.653 53.0526 298.662 52.4645C298.653 51.9702 298.444 51.5653 298.035 51.25C297.626 50.9261 296.995 50.679 296.143 50.5085L292.743 49.831C290.825 49.4474 289.397 48.7827 288.46 47.8366C287.531 46.8906 287.066 45.6847 287.066 44.2188C287.066 42.9574 287.407 41.8707 288.089 40.9588C288.779 40.0469 289.747 39.3438 290.991 38.8494C292.244 38.3551 293.71 38.108 295.389 38.108C297.869 38.108 299.821 38.6321 301.244 39.6804C302.676 40.7287 303.511 42.1562 303.75 43.9631Z" fill="#BFBFBF"/>
<circle cx="421" cy="45" r="39.5" fill="white" stroke="black"/>
<path d="M412.812 58V55.6989L421.454 46.2386C422.468 45.1307 423.303 44.1676 423.96 43.3494C424.616 42.5227 425.102 41.7472 425.417 41.0227C425.741 40.2898 425.903 39.5227 425.903 38.7216C425.903 37.8011 425.681 37.0043 425.238 36.331C424.803 35.6577 424.207 35.1378 423.448 34.7713C422.69 34.4048 421.837 34.2216 420.891 34.2216C419.886 34.2216 419.008 34.4304 418.258 34.848C417.516 35.2571 416.941 35.8324 416.532 36.5739C416.131 37.3153 415.931 38.1847 415.931 39.1818H412.914C412.914 37.6477 413.268 36.3011 413.975 35.142C414.683 33.983 415.646 33.0795 416.864 32.4318C418.092 31.7841 419.468 31.4602 420.994 31.4602C422.528 31.4602 423.887 31.7841 425.072 32.4318C426.256 33.0795 427.185 33.9531 427.859 35.0526C428.532 36.152 428.869 37.375 428.869 38.7216C428.869 39.6847 428.694 40.6264 428.344 41.5469C428.004 42.4588 427.407 43.4773 426.555 44.6023C425.711 45.7187 424.539 47.0824 423.039 48.6932L417.158 54.983V55.1875H429.329V58H412.812Z" fill="black"/>
<path d="M412.812 58H411.812V59H412.812V58ZM412.812 55.6989L412.073 55.0244L411.812 55.3109V55.6989H412.812ZM421.454 46.2386L420.716 45.5634L420.716 45.5642L421.454 46.2386ZM423.96 43.3494L424.74 43.9751L424.743 43.9712L423.96 43.3494ZM425.417 41.0227L424.502 40.6186L424.5 40.6236L425.417 41.0227ZM425.238 36.331L424.398 36.8734L424.403 36.8808L425.238 36.331ZM423.448 34.7713L423.883 33.8709H423.883L423.448 34.7713ZM418.258 34.848L418.741 35.7236L418.744 35.7217L418.258 34.848ZM416.532 36.5739L415.656 36.0908L415.652 36.0986L416.532 36.5739ZM415.931 39.1818V40.1818H416.931V39.1818H415.931ZM412.914 39.1818H411.914V40.1818H412.914V39.1818ZM413.975 35.142L414.829 35.663L414.829 35.663L413.975 35.142ZM416.864 32.4318L416.398 31.5474L416.395 31.5488L416.864 32.4318ZM425.072 32.4318L425.551 31.5544L425.072 32.4318ZM428.344 41.5469L427.41 41.192L427.408 41.1967L428.344 41.5469ZM426.555 44.6023L425.758 43.9984L425.757 43.9994L426.555 44.6023ZM423.039 48.6932L423.77 49.3761L423.771 49.3747L423.039 48.6932ZM417.158 54.983L416.428 54.3L416.158 54.5883V54.983H417.158ZM417.158 55.1875H416.158V56.1875H417.158V55.1875ZM429.329 55.1875H430.329V54.1875H429.329V55.1875ZM429.329 58V59H430.329V58H429.329ZM413.812 58V55.6989H411.812V58H413.812ZM413.55 56.3733L422.192 46.9131L420.716 45.5642L412.073 55.0244L413.55 56.3733ZM422.191 46.9138C423.215 45.7961 424.065 44.8158 424.74 43.9751L423.179 42.7237C422.541 43.5195 421.721 44.4653 420.716 45.5634L422.191 46.9138ZM424.743 43.9712C425.436 43.0976 425.974 42.2475 426.334 41.4218L424.5 40.6236C424.229 41.2468 423.795 41.9478 423.176 42.7277L424.743 43.9712ZM426.332 41.4269C426.712 40.5667 426.903 39.6619 426.903 38.7216H424.903C424.903 39.3835 424.77 40.0129 424.502 40.6186L426.332 41.4269ZM426.903 38.7216C426.903 37.6342 426.639 36.64 426.073 35.7812L424.403 36.8808C424.724 37.3685 424.903 37.968 424.903 38.7216H426.903ZM426.078 35.7886C425.539 34.953 424.798 34.313 423.883 33.8709L423.013 35.6717C423.615 35.9626 424.068 36.3624 424.398 36.8733L426.078 35.7886ZM423.883 33.8709C422.973 33.4312 421.969 33.2216 420.891 33.2216V35.2216C421.705 35.2216 422.406 35.3784 423.013 35.6717L423.883 33.8709ZM420.891 33.2216C419.745 33.2216 418.694 33.4607 417.771 33.9743L418.744 35.7217C419.322 35.4001 420.027 35.2216 420.891 35.2216V33.2216ZM417.775 33.9724C416.868 34.4727 416.157 35.1841 415.656 36.0908L417.408 37.0569C417.725 36.4807 418.165 36.0415 418.741 35.7236L417.775 33.9724ZM415.652 36.0986C415.159 37.0106 414.931 38.0491 414.931 39.1818H416.931C416.931 38.3202 417.103 37.62 417.412 37.0492L415.652 36.0986ZM415.931 38.1818H412.914V40.1818H415.931V38.1818ZM413.914 39.1818C413.914 37.8071 414.229 36.6456 414.829 35.663L413.122 34.6211C412.306 35.9567 411.914 37.4884 411.914 39.1818H413.914ZM414.829 35.663C415.441 34.6595 416.27 33.8799 417.334 33.3149L416.395 31.5488C415.021 32.2791 413.924 33.3064 413.122 34.6211L414.829 35.663ZM417.331 33.3162C418.401 32.7517 419.614 32.4602 420.994 32.4602V30.4602C419.322 30.4602 417.783 30.8164 416.398 31.5474L417.331 33.3162ZM420.994 32.4602C422.383 32.4602 423.573 32.7523 424.592 33.3092L425.551 31.5544C424.201 30.8158 422.672 30.4602 420.994 30.4602V32.4602ZM424.592 33.3092C425.631 33.8773 426.428 34.6315 427.006 35.5748L428.711 34.5303C427.943 33.2748 426.882 32.2818 425.551 31.5544L424.592 33.3092ZM427.006 35.5748C427.579 36.5099 427.869 37.5507 427.869 38.7216H429.869C429.869 37.1993 429.485 35.7941 428.711 34.5303L427.006 35.5748ZM427.869 38.7216C427.869 39.5607 427.717 40.3823 427.41 41.192L429.279 41.9018C429.671 40.8705 429.869 39.8087 429.869 38.7216H427.869ZM427.408 41.1967C427.112 41.987 426.575 42.9193 425.758 43.9984L427.352 45.2061C428.239 44.0353 428.895 42.9306 429.281 41.897L427.408 41.1967ZM425.757 43.9994C424.942 45.0777 423.795 46.4135 422.307 48.0117L423.771 49.3747C425.283 47.7512 426.48 46.3598 427.352 45.2052L425.757 43.9994ZM422.309 48.0102L416.428 54.3L417.889 55.6659L423.77 49.3761L422.309 48.0102ZM416.158 54.983V55.1875H418.158V54.983H416.158ZM417.158 56.1875H429.329V54.1875H417.158V56.1875ZM428.329 55.1875V58H430.329V55.1875H428.329ZM429.329 57H412.812V59H429.329V57Z" fill="black"/>
<path d="M488.631 31.8182L494.959 51.7102H495.202L501.543 31.8182H507.679L498.653 58H491.52L482.482 31.8182H488.631ZM517.462 58.3835C515.442 58.3835 513.703 57.9744 512.246 57.1562C510.797 56.3295 509.681 55.1619 508.897 53.6534C508.113 52.1364 507.721 50.3423 507.721 48.2713C507.721 46.2514 508.113 44.4787 508.897 42.9531C509.681 41.4276 510.784 40.2386 512.208 39.3864C513.64 38.5341 515.319 38.108 517.245 38.108C518.54 38.108 519.746 38.3168 520.863 38.7344C521.988 39.1435 522.968 39.7614 523.803 40.5881C524.647 41.4148 525.303 42.4545 525.772 43.7074C526.24 44.9517 526.475 46.4091 526.475 48.0795V49.5753H509.894V46.2003H521.348C521.348 45.4162 521.178 44.7216 520.837 44.1165C520.496 43.5114 520.023 43.0384 519.418 42.6974C518.821 42.348 518.127 42.1733 517.334 42.1733C516.507 42.1733 515.775 42.3651 515.135 42.7486C514.505 43.1236 514.01 43.6307 513.652 44.2699C513.294 44.9006 513.111 45.6037 513.103 46.3793V49.5881C513.103 50.5597 513.282 51.3991 513.64 52.1065C514.006 52.8139 514.522 53.3594 515.186 53.7429C515.851 54.1264 516.64 54.3182 517.551 54.3182C518.157 54.3182 518.711 54.233 519.213 54.0625C519.716 53.892 520.147 53.6364 520.505 53.2955C520.863 52.9545 521.135 52.5369 521.323 52.0426L526.36 52.375C526.104 53.5852 525.58 54.642 524.787 55.5455C524.003 56.4403 522.989 57.1392 521.745 57.642C520.509 58.1364 519.081 58.3835 517.462 58.3835ZM530.029 58V38.3636H535.309V41.7898H535.513C535.871 40.571 536.472 39.6506 537.316 39.0284C538.159 38.3977 539.131 38.0824 540.23 38.0824C540.503 38.0824 540.797 38.0994 541.113 38.1335C541.428 38.1676 541.705 38.2145 541.944 38.2741V43.1065C541.688 43.0298 541.334 42.9616 540.882 42.902C540.431 42.8423 540.017 42.8125 539.642 42.8125C538.841 42.8125 538.125 42.9872 537.495 43.3366C536.873 43.6776 536.378 44.1548 536.012 44.7685C535.654 45.3821 535.475 46.0895 535.475 46.8906V58H530.029ZM544.759 58V38.3636H550.205V58H544.759ZM547.495 35.8324C546.685 35.8324 545.991 35.5639 545.411 35.027C544.84 34.4815 544.555 33.8295 544.555 33.071C544.555 32.321 544.84 31.6776 545.411 31.1406C545.991 30.5952 546.685 30.3224 547.495 30.3224C548.305 30.3224 548.995 30.5952 549.566 31.1406C550.146 31.6776 550.435 32.321 550.435 33.071C550.435 33.8295 550.146 34.4815 549.566 35.027C548.995 35.5639 548.305 35.8324 547.495 35.8324ZM565.127 38.3636V42.4545H553.008V38.3636H565.127ZM555.782 58V36.9446C555.782 35.5213 556.059 34.3409 556.613 33.4034C557.176 32.4659 557.943 31.7628 558.914 31.294C559.886 30.8253 560.99 30.5909 562.225 30.5909C563.061 30.5909 563.824 30.6548 564.514 30.7827C565.213 30.9105 565.733 31.0256 566.074 31.1278L565.102 35.2188C564.889 35.1506 564.625 35.0866 564.309 35.027C564.002 34.9673 563.687 34.9375 563.363 34.9375C562.562 34.9375 562.004 35.125 561.689 35.5C561.373 35.8665 561.216 36.3821 561.216 37.0469V58H555.782ZM571.817 65.3636C571.126 65.3636 570.479 65.3082 569.874 65.1974C569.277 65.0952 568.783 64.9631 568.391 64.8011L569.618 60.7358C570.257 60.9318 570.832 61.0384 571.344 61.0554C571.864 61.0724 572.311 60.9531 572.686 60.6974C573.07 60.4418 573.381 60.0071 573.619 59.3935L573.939 58.5625L566.895 38.3636H572.622L576.688 52.7841H576.892L580.996 38.3636H586.761L579.129 60.1222C578.763 61.179 578.264 62.0994 577.634 62.8835C577.011 63.6761 576.223 64.2855 575.268 64.7116C574.314 65.1463 573.163 65.3636 571.817 65.3636Z" fill="black"/>
<circle cx="722" cy="45" r="39.5" fill="white" stroke="black"/>
<path d="M722.596 58.358C720.908 58.358 719.404 58.0682 718.083 57.4886C716.771 56.9091 715.727 56.1037 714.951 55.0724C714.184 54.0327 713.766 52.8267 713.698 51.4545H716.92C716.988 52.2983 717.278 53.027 717.789 53.6406C718.3 54.2457 718.969 54.7145 719.796 55.0469C720.623 55.3793 721.539 55.5455 722.545 55.5455C723.67 55.5455 724.667 55.3494 725.536 54.9574C726.406 54.5653 727.087 54.0199 727.582 53.321C728.076 52.6222 728.323 51.8125 728.323 50.892C728.323 49.929 728.085 49.081 727.607 48.348C727.13 47.6065 726.431 47.027 725.511 46.6094C724.59 46.1918 723.465 45.983 722.136 45.983H720.039V43.1705H722.136C723.175 43.1705 724.087 42.983 724.871 42.608C725.664 42.233 726.282 41.7045 726.725 41.0227C727.177 40.3409 727.403 39.5398 727.403 38.6193C727.403 37.733 727.207 36.9616 726.815 36.3054C726.423 35.6491 725.869 35.1378 725.153 34.7713C724.445 34.4048 723.61 34.2216 722.647 34.2216C721.744 34.2216 720.891 34.3878 720.09 34.7202C719.298 35.044 718.65 35.517 718.147 36.1392C717.644 36.7528 717.371 37.4943 717.329 38.3636H714.261C714.312 36.9915 714.725 35.7898 715.501 34.7585C716.276 33.7187 717.29 32.9091 718.543 32.3295C719.805 31.75 721.19 31.4602 722.698 31.4602C724.317 31.4602 725.707 31.7884 726.866 32.4446C728.025 33.0923 728.915 33.9489 729.538 35.0142C730.16 36.0795 730.471 37.2301 730.471 38.4659C730.471 39.9403 730.083 41.1974 729.308 42.2372C728.54 43.277 727.496 43.9972 726.175 44.3977V44.6023C727.829 44.875 729.12 45.5781 730.049 46.7116C730.978 47.8366 731.442 49.2301 731.442 50.892C731.442 52.3153 731.055 53.5938 730.279 54.7273C729.512 55.8523 728.464 56.7386 727.134 57.3864C725.805 58.0341 724.292 58.358 722.596 58.358Z" fill="black"/>
<path d="M718.083 57.4886L717.679 58.4034L717.681 58.4044L718.083 57.4886ZM714.951 55.0724L714.146 55.6661L714.152 55.6735L714.951 55.0724ZM713.698 51.4545V50.4545H712.647L712.699 51.5042L713.698 51.4545ZM716.92 51.4545L717.916 51.374L717.842 50.4545H716.92V51.4545ZM717.789 53.6406L717.021 54.2808L717.025 54.2861L717.789 53.6406ZM719.796 55.0469L719.423 55.9747H719.423L719.796 55.0469ZM727.582 53.321L726.765 52.7436L727.582 53.321ZM727.607 48.348L726.766 48.8893L726.769 48.8937L727.607 48.348ZM725.511 46.6094L725.097 47.52V47.52L725.511 46.6094ZM720.039 45.983H719.039V46.983H720.039V45.983ZM720.039 43.1705V42.1705H719.039V43.1705H720.039ZM724.871 42.608L724.444 41.704L724.44 41.7058L724.871 42.608ZM726.725 41.0227L725.891 40.4704L725.887 40.4777L726.725 41.0227ZM726.815 36.3054L727.673 35.7925V35.7925L726.815 36.3054ZM725.153 34.7713L724.693 35.6592L724.697 35.6615L725.153 34.7713ZM720.09 34.7202L720.468 35.6459L720.473 35.6438L720.09 34.7202ZM718.147 36.1392L718.921 36.773L718.925 36.7678L718.147 36.1392ZM717.329 38.3636V39.3636H718.281L718.328 38.4126L717.329 38.3636ZM714.261 38.3636L713.261 38.3264L713.223 39.3636H714.261V38.3636ZM715.501 34.7585L716.3 35.3596L716.302 35.3564L715.501 34.7585ZM718.543 32.3295L718.126 31.4209L718.123 31.4219L718.543 32.3295ZM726.866 32.4446L726.373 33.3148L726.378 33.3175L726.866 32.4446ZM729.538 35.0142L728.674 35.5185V35.5185L729.538 35.0142ZM729.308 42.2372L728.506 41.6393L728.503 41.6436L729.308 42.2372ZM726.175 44.3977L725.885 43.4408L725.175 43.656V44.3977H726.175ZM726.175 44.6023H725.175V45.4508L726.013 45.5889L726.175 44.6023ZM730.049 46.7116L729.276 47.3455L729.278 47.3484L730.049 46.7116ZM730.279 54.7273L729.454 54.1626L729.453 54.1639L730.279 54.7273ZM727.134 57.3864L727.572 58.2854L727.134 57.3864ZM722.596 57.358C721.023 57.358 719.66 57.0882 718.485 56.5729L717.681 58.4044C719.149 59.0481 720.793 59.358 722.596 59.358V57.358ZM718.487 56.5738C717.313 56.0555 716.412 55.3512 715.75 54.4714L714.152 55.6735C715.041 56.8562 716.228 57.7627 717.679 58.4034L718.487 56.5738ZM715.756 54.4788C715.113 53.6075 714.756 52.5937 714.697 51.4049L712.699 51.5042C712.777 53.0597 713.255 54.4578 714.146 55.6661L715.756 54.4788ZM713.698 52.4545H716.92V50.4545H713.698V52.4545ZM715.923 51.5351C716.007 52.5715 716.369 53.4989 717.021 54.2808L718.557 53.0004C718.186 52.555 717.969 52.0251 717.916 51.374L715.923 51.5351ZM717.025 54.2861C717.654 55.0306 718.464 55.5891 719.423 55.9747L720.169 54.1191C719.475 53.8398 718.946 53.4609 718.553 52.9952L717.025 54.2861ZM719.423 55.9747C720.383 56.3605 721.428 56.5455 722.545 56.5455V54.5455C721.651 54.5455 720.863 54.398 720.169 54.1191L719.423 55.9747ZM722.545 56.5455C723.786 56.5455 724.928 56.3288 725.947 55.869L725.125 54.0458C724.406 54.37 723.553 54.5455 722.545 54.5455V56.5455ZM725.947 55.869C726.96 55.4122 727.789 54.759 728.398 53.8985L726.765 52.7436C726.385 53.2808 725.851 53.7185 725.125 54.0458L725.947 55.869ZM728.398 53.8985C729.021 53.0178 729.323 52.0029 729.323 50.892H727.323C727.323 51.6221 727.131 52.2265 726.765 52.7436L728.398 53.8985ZM729.323 50.892C729.323 49.7556 729.039 48.7139 728.445 47.8023L726.769 48.8937C727.13 49.448 727.323 50.1024 727.323 50.892H729.323ZM728.448 47.8068C727.852 46.8809 726.993 46.1839 725.924 45.6987L725.097 47.52C725.869 47.8701 726.408 48.3321 726.766 48.8893L728.448 47.8068ZM725.924 45.6987C724.839 45.2068 723.565 44.983 722.136 44.983V46.983C723.366 46.983 724.341 47.1768 725.097 47.52L725.924 45.6987ZM722.136 44.983H720.039V46.983H722.136V44.983ZM721.039 45.983V43.1705H719.039V45.983H721.039ZM720.039 44.1705H722.136V42.1705H720.039V44.1705ZM722.136 44.1705C723.296 44.1705 724.36 43.9609 725.303 43.5101L724.44 41.7058C723.814 42.005 723.055 42.1705 722.136 42.1705V44.1705ZM725.299 43.5119C726.246 43.0641 727.011 42.4171 727.564 41.5677L725.887 40.4777C725.552 40.992 725.082 41.4018 724.444 41.704L725.299 43.5119ZM727.559 41.575C728.132 40.7094 728.403 39.7107 728.403 38.6193H726.403C726.403 39.3688 726.221 39.9724 725.891 40.4704L727.559 41.575ZM728.403 38.6193C728.403 37.5816 728.172 36.6271 727.673 35.7925L725.956 36.8183C726.242 37.2962 726.403 37.8843 726.403 38.6193H728.403ZM727.673 35.7925C727.18 34.9667 726.482 34.3285 725.608 33.8812L724.697 35.6615C725.255 35.9471 725.665 36.3316 725.956 36.8183L727.673 35.7925ZM725.613 33.8834C724.736 33.4294 723.737 33.2216 722.647 33.2216V35.2216C723.483 35.2216 724.154 35.3802 724.693 35.6592L725.613 33.8834ZM722.647 33.2216C721.618 33.2216 720.635 33.4116 719.707 33.7965L720.473 35.6438C721.148 35.3639 721.87 35.2216 722.647 35.2216V33.2216ZM719.712 33.7945C718.775 34.1775 717.986 34.7481 717.369 35.5106L718.925 36.7678C719.314 36.286 719.821 35.9106 720.468 35.6459L719.712 33.7945ZM717.374 35.5054C716.722 36.301 716.382 37.2532 716.33 38.3147L718.328 38.4126C718.361 37.7354 718.567 37.2047 718.92 36.773L717.374 35.5054ZM717.329 37.3636H714.261V39.3636H717.329V37.3636ZM715.26 38.4009C715.304 37.2189 715.655 36.217 716.3 35.3596L714.702 34.1575C713.795 35.3625 713.32 36.7641 713.261 38.3264L715.26 38.4009ZM716.302 35.3564C716.972 34.4586 717.851 33.7514 718.963 33.2371L718.123 31.4219C716.73 32.0667 715.581 32.9789 714.699 34.1606L716.302 35.3564ZM718.961 33.2382C720.08 32.7239 721.321 32.4602 722.698 32.4602V30.4602C721.058 30.4602 719.529 30.7761 718.126 31.4209L718.961 33.2382ZM722.698 32.4602C724.182 32.4602 725.394 32.7602 726.373 33.3148L727.358 31.5744C726.02 30.8165 724.453 30.4602 722.698 30.4602V32.4602ZM726.378 33.3175C727.393 33.885 728.149 34.6191 728.674 35.5185L730.401 34.5099C729.682 33.2786 728.656 32.2996 727.354 31.5717L726.378 33.3175ZM728.674 35.5185C729.207 36.4305 729.471 37.407 729.471 38.4659H731.471C731.471 37.0532 731.113 35.7286 730.401 34.5099L728.674 35.5185ZM729.471 38.4659C729.471 39.7556 729.135 40.7954 728.506 41.6393L730.109 42.8351C731.031 41.5995 731.471 40.125 731.471 38.4659H729.471ZM728.503 41.6436C727.873 42.4978 727.015 43.0982 725.885 43.4408L726.466 45.3547C727.978 44.8962 729.208 44.0562 730.112 42.8309L728.503 41.6436ZM725.175 44.3977V44.6023H727.175V44.3977H725.175ZM726.013 45.5889C727.463 45.8282 728.523 46.4267 729.276 47.3455L730.822 46.0778C729.718 44.7295 728.195 43.9218 726.338 43.6156L726.013 45.5889ZM729.278 47.3484C730.039 48.2695 730.442 49.4283 730.442 50.892H732.442C732.442 49.0319 731.917 47.4038 730.82 46.0749L729.278 47.3484ZM730.442 50.892C730.442 52.1216 730.111 53.2017 729.454 54.1626L731.104 55.292C731.998 53.9858 732.442 52.5091 732.442 50.892H730.442ZM729.453 54.1639C728.792 55.1329 727.883 55.9091 726.696 56.4874L727.572 58.2854C729.044 57.5682 730.232 56.5716 731.105 55.2906L729.453 54.1639ZM726.696 56.4874C725.522 57.0595 724.162 57.358 722.596 57.358V59.358C724.421 59.358 726.087 59.0087 727.572 58.2854L726.696 56.4874Z" fill="black"/>
<path d="M791.885 39.348C791.783 38.3168 791.344 37.5156 790.568 36.9446C789.793 36.3736 788.74 36.0881 787.411 36.0881C786.507 36.0881 785.744 36.2159 785.122 36.4716C784.5 36.7188 784.023 37.0639 783.69 37.5071C783.366 37.9503 783.205 38.4531 783.205 39.0156C783.188 39.4844 783.286 39.8935 783.499 40.2429C783.72 40.5923 784.023 40.8949 784.406 41.1506C784.79 41.3977 785.233 41.6151 785.736 41.8026C786.239 41.9815 786.776 42.1349 787.347 42.2628L789.699 42.8253C790.841 43.081 791.889 43.4219 792.844 43.848C793.798 44.2741 794.625 44.7983 795.324 45.4205C796.023 46.0426 796.564 46.7756 796.947 47.6193C797.339 48.4631 797.54 49.4304 797.548 50.5213C797.54 52.1236 797.131 53.5128 796.321 54.6889C795.52 55.8565 794.361 56.7642 792.844 57.4119C791.335 58.0511 789.516 58.3707 787.385 58.3707C785.271 58.3707 783.43 58.0469 781.862 57.3991C780.303 56.7514 779.084 55.7926 778.206 54.5227C777.337 53.2443 776.881 51.6634 776.838 49.7798H782.195C782.254 50.6577 782.506 51.3906 782.949 51.9787C783.401 52.5582 784.001 52.9972 784.751 53.2955C785.51 53.5852 786.366 53.7301 787.321 53.7301C788.259 53.7301 789.072 53.5937 789.763 53.321C790.462 53.0483 791.003 52.669 791.386 52.1832C791.77 51.6974 791.962 51.1392 791.962 50.5085C791.962 49.9205 791.787 49.4261 791.438 49.0256C791.097 48.625 790.594 48.2841 789.929 48.0028C789.273 47.7216 788.467 47.4659 787.513 47.2358L784.662 46.5199C782.455 45.983 780.712 45.1435 779.433 44.0014C778.155 42.8594 777.52 41.321 777.528 39.3864C777.52 37.8011 777.942 36.4162 778.794 35.2315C779.655 34.0469 780.835 33.1222 782.335 32.4574C783.835 31.7926 785.54 31.4602 787.449 31.4602C789.392 31.4602 791.088 31.7926 792.537 32.4574C793.994 33.1222 795.128 34.0469 795.938 35.2315C796.747 36.4162 797.165 37.7884 797.19 39.348H791.885ZM813.762 49.6392V38.3636H819.208V58H813.979V54.4332H813.775C813.331 55.5838 812.594 56.5085 811.563 57.2074C810.54 57.9062 809.292 58.2557 807.817 58.2557C806.505 58.2557 805.35 57.9574 804.353 57.3608C803.355 56.7642 802.576 55.9162 802.013 54.8168C801.459 53.7173 801.178 52.4006 801.169 50.8665V38.3636H806.615V49.8949C806.624 51.054 806.935 51.9702 807.549 52.6435C808.162 53.3168 808.985 53.6534 810.016 53.6534C810.672 53.6534 811.286 53.5043 811.857 53.206C812.428 52.8991 812.888 52.4474 813.238 51.8509C813.596 51.2543 813.77 50.517 813.762 49.6392ZM832.436 58.3835C830.425 58.3835 828.695 57.9574 827.246 57.1051C825.805 56.2443 824.697 55.0511 823.922 53.5256C823.155 52 822.771 50.2443 822.771 48.2585C822.771 46.2472 823.159 44.483 823.935 42.9659C824.719 41.4403 825.831 40.2514 827.271 39.3991C828.712 38.5384 830.425 38.108 832.411 38.108C834.124 38.108 835.624 38.419 836.911 39.0412C838.197 39.6634 839.216 40.5369 839.966 41.6619C840.716 42.7869 841.129 44.108 841.206 45.625H836.067C835.922 44.6449 835.538 43.8565 834.916 43.2599C834.303 42.6548 833.497 42.3523 832.5 42.3523C831.656 42.3523 830.919 42.5824 830.288 43.0426C829.666 43.4943 829.18 44.1548 828.831 45.0241C828.482 45.8935 828.307 46.946 828.307 48.1818C828.307 49.4347 828.477 50.5 828.818 51.3778C829.168 52.2557 829.658 52.9247 830.288 53.3849C830.919 53.8452 831.656 54.0753 832.5 54.0753C833.122 54.0753 833.68 53.9474 834.175 53.6918C834.678 53.4361 835.091 53.0653 835.415 52.5795C835.747 52.0852 835.964 51.4929 836.067 50.8026H841.206C841.121 52.3026 840.712 53.6236 839.979 54.7656C839.254 55.8991 838.253 56.7855 836.974 57.4247C835.696 58.0639 834.183 58.3835 832.436 58.3835ZM853.565 58.3835C851.554 58.3835 849.824 57.9574 848.375 57.1051C846.934 56.2443 845.826 55.0511 845.051 53.5256C844.284 52 843.9 50.2443 843.9 48.2585C843.9 46.2472 844.288 44.483 845.064 42.9659C845.848 41.4403 846.96 40.2514 848.4 39.3991C849.841 38.5384 851.554 38.108 853.539 38.108C855.252 38.108 856.752 38.419 858.039 39.0412C859.326 39.6634 860.345 40.5369 861.095 41.6619C861.845 42.7869 862.258 44.108 862.335 45.625H857.196C857.051 44.6449 856.667 43.8565 856.045 43.2599C855.431 42.6548 854.626 42.3523 853.629 42.3523C852.785 42.3523 852.048 42.5824 851.417 43.0426C850.795 43.4943 850.309 44.1548 849.96 45.0241C849.61 45.8935 849.436 46.946 849.436 48.1818C849.436 49.4347 849.606 50.5 849.947 51.3778C850.297 52.2557 850.787 52.9247 851.417 53.3849C852.048 53.8452 852.785 54.0753 853.629 54.0753C854.251 54.0753 854.809 53.9474 855.304 53.6918C855.806 53.4361 856.22 53.0653 856.544 52.5795C856.876 52.0852 857.093 51.4929 857.196 50.8026H862.335C862.25 52.3026 861.841 53.6236 861.108 54.7656C860.383 55.8991 859.382 56.7855 858.103 57.4247C856.825 58.0639 855.312 58.3835 853.565 58.3835ZM874.771 58.3835C872.751 58.3835 871.012 57.9744 869.555 57.1562C868.106 56.3295 866.989 55.1619 866.205 53.6534C865.421 52.1364 865.029 50.3423 865.029 48.2713C865.029 46.2514 865.421 44.4787 866.205 42.9531C866.989 41.4276 868.093 40.2386 869.516 39.3864C870.948 38.5341 872.627 38.108 874.553 38.108C875.849 38.108 877.055 38.3168 878.171 38.7344C879.296 39.1435 880.276 39.7614 881.112 40.5881C881.955 41.4148 882.612 42.4545 883.08 43.7074C883.549 44.9517 883.783 46.4091 883.783 48.0795V49.5753H867.202V46.2003H878.657C878.657 45.4162 878.487 44.7216 878.146 44.1165C877.805 43.5114 877.332 43.0384 876.727 42.6974C876.13 42.348 875.435 42.1733 874.643 42.1733C873.816 42.1733 873.083 42.3651 872.444 42.7486C871.813 43.1236 871.319 43.6307 870.961 44.2699C870.603 44.9006 870.42 45.6037 870.411 46.3793V49.5881C870.411 50.5597 870.59 51.3991 870.948 52.1065C871.315 52.8139 871.83 53.3594 872.495 53.7429C873.16 54.1264 873.948 54.3182 874.86 54.3182C875.465 54.3182 876.019 54.233 876.522 54.0625C877.025 53.892 877.455 53.6364 877.813 53.2955C878.171 52.9545 878.444 52.5369 878.631 52.0426L883.668 52.375C883.413 53.5852 882.888 54.642 882.096 55.5455C881.312 56.4403 880.298 57.1392 879.053 57.642C877.817 58.1364 876.39 58.3835 874.771 58.3835ZM903.675 43.9631L898.69 44.2699C898.604 43.8437 898.421 43.4602 898.14 43.1193C897.859 42.7699 897.488 42.4929 897.028 42.2884C896.576 42.0753 896.035 41.9688 895.404 41.9688C894.56 41.9688 893.849 42.1477 893.269 42.5057C892.69 42.8551 892.4 43.3239 892.4 43.9119C892.4 44.3807 892.587 44.777 892.962 45.1009C893.337 45.4247 893.981 45.6847 894.893 45.8807L898.447 46.5966C900.356 46.9886 901.779 47.6193 902.717 48.4886C903.654 49.358 904.123 50.5 904.123 51.9148C904.123 53.2017 903.744 54.331 902.985 55.3026C902.235 56.2741 901.204 57.0327 899.891 57.5781C898.587 58.1151 897.083 58.3835 895.379 58.3835C892.779 58.3835 890.708 57.8423 889.165 56.7599C887.631 55.669 886.732 54.1861 886.468 52.3111L891.825 52.0298C891.987 52.8224 892.379 53.4276 893.001 53.8452C893.623 54.2543 894.42 54.4588 895.391 54.4588C896.346 54.4588 897.113 54.2756 897.692 53.9091C898.281 53.5341 898.579 53.0526 898.587 52.4645C898.579 51.9702 898.37 51.5653 897.961 51.25C897.552 50.9261 896.921 50.679 896.069 50.5085L892.668 49.831C890.751 49.4474 889.323 48.7827 888.386 47.8366C887.457 46.8906 886.992 45.6847 886.992 44.2188C886.992 42.9574 887.333 41.8707 888.015 40.9588C888.705 40.0469 889.673 39.3438 890.917 38.8494C892.17 38.3551 893.636 38.108 895.315 38.108C897.795 38.108 899.746 38.6321 901.17 39.6804C902.602 40.7287 903.437 42.1562 903.675 43.9631ZM923.89 43.9631L918.904 44.2699C918.819 43.8437 918.636 43.4602 918.355 43.1193C918.074 42.7699 917.703 42.4929 917.243 42.2884C916.791 42.0753 916.25 41.9688 915.619 41.9688C914.775 41.9688 914.064 42.1477 913.484 42.5057C912.904 42.8551 912.615 43.3239 912.615 43.9119C912.615 44.3807 912.802 44.777 913.177 45.1009C913.552 45.4247 914.196 45.6847 915.108 45.8807L918.662 46.5966C920.571 46.9886 921.994 47.6193 922.931 48.4886C923.869 49.358 924.338 50.5 924.338 51.9148C924.338 53.2017 923.958 54.331 923.2 55.3026C922.45 56.2741 921.419 57.0327 920.106 57.5781C918.802 58.1151 917.298 58.3835 915.593 58.3835C912.994 58.3835 910.923 57.8423 909.38 56.7599C907.846 55.669 906.947 54.1861 906.683 52.3111L912.039 52.0298C912.201 52.8224 912.593 53.4276 913.216 53.8452C913.838 54.2543 914.635 54.4588 915.606 54.4588C916.561 54.4588 917.328 54.2756 917.907 53.9091C918.495 53.5341 918.794 53.0526 918.802 52.4645C918.794 51.9702 918.585 51.5653 918.176 51.25C917.767 50.9261 917.136 50.679 916.284 50.5085L912.883 49.831C910.966 49.4474 909.538 48.7827 908.6 47.8366C907.672 46.8906 907.207 45.6847 907.207 44.2188C907.207 42.9574 907.548 41.8707 908.23 40.9588C908.92 40.0469 909.887 39.3438 911.132 38.8494C912.385 38.3551 913.85 38.108 915.529 38.108C918.01 38.108 919.961 38.6321 921.385 39.6804C922.816 40.7287 923.652 42.1562 923.89 43.9631Z" fill="#BFBFBF"/>
</svg>
